<svg width="283" height="182" viewBox="0 0 283 182" fill="none" xmlns="http://www.w3.org/2000/svg">
<path d="M0.794678 100.471H7.42918L13.4686 112.109L19.4639 100.471H26.0102L16.5324 118.854V132.895H10.3167V118.854L0.794678 100.471ZM28.4154 100.471H46.1148V106.511H34.5429V112.374H46.1148V118.303H34.5429V126.833H46.1148V132.895H28.4154V100.471ZM49.1812 100.471H55.3528V127.009H64.3457V132.895H49.1812V100.471ZM66.3542 100.471H72.5258V127.009H81.5187V132.895H66.3542V100.471ZM98.846 99.6562C103.431 99.6562 107.369 101.316 110.66 104.637C113.966 107.958 115.62 112.007 115.62 116.782C115.62 121.514 113.988 125.518 110.726 128.795C107.479 132.072 103.533 133.71 98.8901 133.71C94.0263 133.71 89.9853 132.028 86.7673 128.663C83.5492 125.298 81.9402 121.301 81.9402 116.672C81.9402 113.571 82.6896 110.721 84.1884 108.12C85.6872 105.519 87.7444 103.462 90.36 101.948C92.9903 100.42 95.819 99.6562 98.846 99.6562ZM98.7799 105.695C95.7823 105.695 93.2622 106.739 91.2197 108.825C89.1771 110.912 88.1559 113.564 88.1559 116.782C88.1559 120.368 89.4416 123.204 92.0132 125.29C94.0116 126.921 96.3039 127.737 98.8901 127.737C101.814 127.737 104.305 126.679 106.362 124.563C108.419 122.447 109.448 119.839 109.448 116.738C109.448 113.652 108.412 111.044 106.34 108.913C104.268 106.768 101.748 105.695 98.7799 105.695ZM128.695 100.471H146.395V106.511H134.823V112.374H146.395V118.303H134.823V126.833H146.395V132.895H128.695V100.471ZM149.483 100.471H155.39L169.299 121.808V100.471H175.47V132.895H169.541L155.655 111.624V132.895H149.483V100.471ZM180.19 100.471H197.889V106.511H186.317V112.374H197.889V118.303H186.317V126.833H197.889V132.895H180.19V100.471ZM201.374 100.471H207.921C211.506 100.471 214.056 100.795 215.569 101.441C217.097 102.073 218.324 103.131 219.25 104.615C220.176 106.099 220.639 107.855 220.639 109.883C220.639 112.014 220.124 113.799 219.096 115.239C218.082 116.665 216.546 117.745 214.489 118.479L222.159 132.895H215.415L208.119 119.163H207.546V132.895H201.374V100.471ZM207.546 113.145H209.486C211.455 113.145 212.807 112.888 213.541 112.374C214.291 111.86 214.665 111.007 214.665 109.817C214.665 109.112 214.482 108.502 214.114 107.988C213.747 107.459 213.255 107.084 212.638 106.863C212.02 106.628 210.889 106.511 209.243 106.511H207.546V113.145ZM254.365 105.761L250.023 110.06C247.275 107.15 244.071 105.695 240.413 105.695C237.224 105.695 234.549 106.753 232.389 108.869C230.244 110.985 229.171 113.557 229.171 116.584C229.171 119.714 230.288 122.366 232.522 124.541C234.755 126.716 237.51 127.803 240.787 127.803C242.918 127.803 244.711 127.355 246.165 126.458C247.635 125.562 248.818 124.159 249.714 122.248H240.324V116.452H256.635L256.679 117.818C256.679 120.654 255.944 123.343 254.475 125.885C253.006 128.427 251.103 130.367 248.766 131.704C246.43 133.041 243.689 133.71 240.545 133.71C237.18 133.71 234.175 132.983 231.53 131.528C228.9 130.059 226.813 127.972 225.27 125.268C223.742 122.564 222.978 119.648 222.978 116.518C222.978 112.227 224.396 108.495 227.232 105.321C230.597 101.544 234.976 99.6562 240.368 99.6562C243.19 99.6562 245.827 100.178 248.281 101.221C250.353 102.103 252.381 103.616 254.365 105.761ZM257.321 100.471H263.956L269.995 112.109L275.99 100.471H282.537L273.059 118.854V132.895H266.843V118.854L257.321 100.471Z" fill="#FFBB00"/>
<path d="M87.9653 144.682L86.2138 146.415C85.1055 145.242 83.8133 144.655 82.3375 144.655C81.0513 144.655 79.9726 145.082 79.1013 145.935C78.2359 146.789 77.8032 147.826 77.8032 149.047C77.8032 150.309 78.2537 151.379 79.1546 152.256C80.0555 153.134 81.1669 153.572 82.4886 153.572C83.3481 153.572 84.0712 153.391 84.658 153.03C85.2507 152.668 85.7278 152.102 86.0894 151.332H82.3019V148.994H88.881L88.8988 149.545C88.8988 150.689 88.6025 151.773 88.0098 152.799C87.417 153.824 86.6495 154.607 85.7071 155.146C84.7646 155.685 83.6592 155.955 82.3908 155.955C81.0335 155.955 79.8214 155.662 78.7545 155.075C77.6936 154.482 76.8519 153.64 76.2296 152.55C75.6132 151.459 75.3049 150.283 75.3049 149.02C75.3049 147.289 75.8769 145.784 77.0208 144.504C78.3782 142.98 80.1444 142.219 82.3197 142.219C83.4577 142.219 84.5216 142.429 85.5115 142.85C86.3472 143.206 87.1651 143.816 87.9653 144.682Z" fill="#050913"/>
<path d="M109.129 142.547H111.769C113.215 142.547 114.244 142.677 114.854 142.938C115.471 143.193 115.966 143.62 116.339 144.218C116.712 144.817 116.899 145.525 116.899 146.343C116.899 147.203 116.692 147.923 116.277 148.504C115.868 149.078 115.248 149.514 114.419 149.81L117.513 155.625H114.792L111.849 150.086H111.618V155.625H109.129V142.547ZM111.618 147.659H112.4C113.195 147.659 113.74 147.555 114.036 147.348C114.339 147.14 114.49 146.797 114.49 146.316C114.49 146.032 114.416 145.786 114.267 145.579C114.119 145.365 113.921 145.214 113.672 145.125C113.423 145.03 112.966 144.983 112.303 144.983H111.618V147.659Z" fill="#050913"/>
<path d="M143.437 142.219C145.286 142.219 146.874 142.889 148.202 144.228C149.536 145.568 150.202 147.201 150.202 149.127C150.202 151.035 149.545 152.651 148.229 153.972C146.919 155.294 145.327 155.955 143.454 155.955C141.492 155.955 139.863 155.276 138.564 153.919C137.266 152.562 136.617 150.949 136.617 149.082C136.617 147.832 136.92 146.682 137.524 145.633C138.129 144.584 138.959 143.754 140.014 143.143C141.075 142.527 142.216 142.219 143.437 142.219ZM143.41 144.655C142.201 144.655 141.184 145.076 140.36 145.917C139.537 146.759 139.125 147.829 139.125 149.127C139.125 150.573 139.643 151.717 140.68 152.559C141.487 153.217 142.411 153.546 143.454 153.546C144.634 153.546 145.639 153.119 146.468 152.265C147.298 151.412 147.713 150.36 147.713 149.109C147.713 147.864 147.295 146.812 146.459 145.953C145.624 145.088 144.607 144.655 143.41 144.655Z" fill="#050913"/>
<path d="M168.769 142.629H171.268V151.093C171.268 151.822 171.33 152.337 171.454 152.64C171.585 152.942 171.795 153.185 172.085 153.369C172.382 153.547 172.737 153.635 173.152 153.635C173.591 153.635 173.967 153.535 174.281 153.333C174.602 153.132 174.821 152.877 174.939 152.569C175.064 152.254 175.126 151.659 175.126 150.782V142.629H177.624V150.426C177.624 151.742 177.55 152.655 177.402 153.164C177.254 153.674 176.969 154.166 176.549 154.64C176.134 155.114 175.654 155.467 175.108 155.698C174.563 155.923 173.929 156.036 173.206 156.036C172.257 156.036 171.431 155.82 170.725 155.387C170.026 154.948 169.525 154.403 169.223 153.751C168.92 153.093 168.769 151.985 168.769 150.426V142.629Z" fill="#050913"/>
<path d="M197.836 142.629H200.477C201.905 142.629 202.933 142.762 203.562 143.029C204.196 143.29 204.694 143.716 205.055 144.309C205.423 144.896 205.607 145.601 205.607 146.425C205.607 147.338 205.366 148.097 204.886 148.701C204.412 149.306 203.766 149.727 202.948 149.964C202.468 150.1 201.594 150.168 200.325 150.168V155.707H197.836V142.629ZM200.325 147.741H201.117C201.739 147.741 202.172 147.697 202.415 147.608C202.658 147.519 202.847 147.373 202.984 147.172C203.126 146.965 203.197 146.716 203.197 146.425C203.197 145.921 203.002 145.554 202.61 145.323C202.326 145.151 201.798 145.065 201.028 145.065H200.325V147.741Z" fill="#050913"/>
<path d="M7.44751 151.184H54.0028" stroke="#050913" stroke-width="4.1727"/>
<path d="M229.525 151.164H276.08" stroke="#050913" stroke-width="4.1727"/>
<path d="M83.1024 50.9805L70.803 64.1915L91.1114 64.5447L103.053 51.6869L83.1024 50.9805Z" fill="#FDFEF1"/>
<path d="M94.6561 38.375L82.3567 51.586L102.665 51.9392L114.607 39.0815L94.6561 38.375Z" fill="#FDFEF1"/>
<path d="M105.729 27.1367L93.4294 40.3477L113.738 40.7009L125.68 27.8432L105.729 27.1367Z" fill="#FDFEF1"/>
<path d="M119.834 52.1133L106.336 65.3243L128.624 65.6775L141.729 52.8197L119.834 52.1133Z" fill="#FDFEF1"/>
<path d="M156.262 52.5938L142.764 65.8047L165.052 66.1579L178.158 53.3002L156.262 52.5938Z" fill="#FDFEF1"/>
<path d="M168.178 39.25L154.679 52.461L176.967 52.8142L190.073 39.9565L168.178 39.25Z" fill="#FDFEF1"/>
<path d="M178.848 28.1367L165.35 41.3477L187.638 41.7009L200.744 28.8432L178.848 28.1367Z" fill="#FDFEF1"/>
<path d="M132.186 39.0312L118.319 52.2422L141.216 52.5956L154.681 39.7378L132.186 39.0312Z" fill="#FDFEF1"/>
<path d="M144.606 25.8242L129.529 39.0352L154.424 39.3884L169.063 26.5307L144.606 25.8242Z" fill="#FDFEF1"/>
<path d="M155.302 14.5742L139.81 27.7852L165.39 28.1384L180.433 15.2807L155.302 14.5742Z" fill="#FDFEF1"/>
<path d="M177.549 28.4883L142.286 66.6794H164.896L200.744 28.4883H177.549Z" stroke="#FFBB00" stroke-width="2.65536" stroke-linejoin="round"/>
<path d="M82.3567 50.3008L104.506 50.9781" stroke="#050913" stroke-width="3.03469"/>
<path d="M117.885 51.9492L141.728 53.2544" stroke="#FFBB00" stroke-width="3.03469"/>
<path d="M156.252 51.7812L178.158 52.6" stroke="#FFBB00" stroke-width="3.03469"/>
<path d="M168.341 38.793L190.484 39.7005" stroke="#FFBB00" stroke-width="3.03469"/>
<path d="M131.411 38.2812L156.814 39.3942" stroke="#FFBB00" stroke-width="3.03469"/>
<path d="M143.661 25.375L169.064 26.488" stroke="#FFBB00" stroke-width="3.03469"/>
<path d="M116.8 38.5583L93.8904 37.6992" stroke="#050913" stroke-width="3.03469"/>
<path d="M61.3201 78.6758H125.693" stroke="#050913" stroke-width="3.41403"/>
<path d="M174.793 78.7383H222.372" stroke="#FFBB00" stroke-width="2.27602"/>
<path d="M136.713 78.3945H161.443" stroke="#FFBB00" stroke-width="3.03469"/>
<path d="M176.121 79.8757V54.3145" stroke="#FFBB00" stroke-width="2.65536"/>
<path d="M138.033 79.919V58.127" stroke="#FFBB00" stroke-width="2.65536"/>
<path d="M133.001 79.1454V66.6113" stroke="#FFBB00" stroke-width="2.65536"/>
<path d="M93.7629 78.1124L94.6197 66.0977" stroke="#050913" stroke-width="3.79337"/>
<path d="M101.804 77.8314V70.2754" stroke="#050913" stroke-width="3.79337"/>
<path d="M170.799 79.0751V67.666" stroke="#FFBB00" stroke-width="2.65536"/>
<path d="M111.168 21.3574C117.066 21.3574 121.847 16.5764 121.847 10.6787C121.847 4.78102 117.066 0 111.168 0C105.271 0 100.49 4.78102 100.49 10.6787C100.49 16.5764 105.271 21.3574 111.168 21.3574Z" fill="#FFBB00"/>
<path d="M104.413 26.7578L68.0876 65.4742L90.9291 65.7182L127.048 27.6978L104.413 26.7578Z" stroke="#050913" stroke-width="3.03469" stroke-linejoin="round"/>
<path d="M153.652 14.3027L103.548 66.6136L128.556 67.0633L181.406 14.8019L153.652 14.3027Z" stroke="#FFBB00" stroke-width="3.41403" stroke-linejoin="round"/>
<path d="M14.1718 175.035L12.0158 171.227H11.0918V175.035H9.13177V165.263H12.7998C13.5558 165.263 14.1998 165.398 14.7318 165.669C15.2638 165.93 15.6604 166.29 15.9218 166.747C16.1924 167.195 16.3278 167.699 16.3278 168.259C16.3278 168.903 16.1411 169.486 15.7678 170.009C15.3944 170.522 14.8391 170.877 14.1018 171.073L16.4398 175.035H14.1718ZM11.0918 169.757H12.7298C13.2618 169.757 13.6584 169.631 13.9198 169.379C14.1811 169.118 14.3118 168.758 14.3118 168.301C14.3118 167.853 14.1811 167.508 13.9198 167.265C13.6584 167.013 13.2618 166.887 12.7298 166.887H11.0918V169.757ZM25.3105 170.989C25.3105 171.269 25.2919 171.521 25.2545 171.745H19.5845C19.6312 172.305 19.8272 172.744 20.1725 173.061C20.5179 173.378 20.9425 173.537 21.4465 173.537C22.1745 173.537 22.6925 173.224 23.0005 172.599H25.1145C24.8905 173.346 24.4612 173.962 23.8265 174.447C23.1919 174.923 22.4125 175.161 21.4885 175.161C20.7419 175.161 20.0699 174.998 19.4725 174.671C18.8845 174.335 18.4225 173.864 18.0865 173.257C17.7599 172.65 17.5965 171.95 17.5965 171.157C17.5965 170.354 17.7599 169.65 18.0865 169.043C18.4132 168.436 18.8705 167.97 19.4585 167.643C20.0465 167.316 20.7232 167.153 21.4885 167.153C22.2259 167.153 22.8839 167.312 23.4625 167.629C24.0505 167.946 24.5032 168.399 24.8205 168.987C25.1472 169.566 25.3105 170.233 25.3105 170.989ZM23.2805 170.429C23.2712 169.925 23.0892 169.524 22.7345 169.225C22.3799 168.917 21.9459 168.763 21.4325 168.763C20.9472 168.763 20.5365 168.912 20.2005 169.211C19.8739 169.5 19.6732 169.906 19.5985 170.429H23.2805ZM26.2371 171.129C26.2371 170.345 26.3911 169.65 26.6991 169.043C27.0165 168.436 27.4411 167.97 27.9731 167.643C28.5145 167.316 29.1165 167.153 29.7791 167.153C30.3578 167.153 30.8618 167.27 31.2911 167.503C31.7298 167.736 32.0798 168.03 32.3411 168.385V167.279H34.3151V175.035H32.3411V173.901C32.0891 174.265 31.7391 174.568 31.2911 174.811C30.8525 175.044 30.3438 175.161 29.7651 175.161C29.1118 175.161 28.5145 174.993 27.9731 174.657C27.4411 174.321 27.0165 173.85 26.6991 173.243C26.3911 172.627 26.2371 171.922 26.2371 171.129ZM32.3411 171.157C32.3411 170.681 32.2478 170.275 32.0611 169.939C31.8745 169.594 31.6225 169.332 31.3051 169.155C30.9878 168.968 30.6471 168.875 30.2831 168.875C29.9191 168.875 29.5831 168.964 29.2751 169.141C28.9671 169.318 28.7151 169.58 28.5191 169.925C28.3325 170.261 28.2391 170.662 28.2391 171.129C28.2391 171.596 28.3325 172.006 28.5191 172.361C28.7151 172.706 28.9671 172.972 29.2751 173.159C29.5925 173.346 29.9285 173.439 30.2831 173.439C30.6471 173.439 30.9878 173.35 31.3051 173.173C31.6225 172.986 31.8745 172.725 32.0611 172.389C32.2478 172.044 32.3411 171.633 32.3411 171.157ZM38.1894 164.675V175.035H36.2294V164.675H38.1894ZM50.5878 168.287C50.5878 168.81 50.4618 169.3 50.2098 169.757C49.9672 170.214 49.5799 170.583 49.0478 170.863C48.5252 171.143 47.8625 171.283 47.0598 171.283H45.4218V175.035H43.4618V165.263H47.0598C47.8158 165.263 48.4598 165.394 48.9918 165.655C49.5238 165.916 49.9205 166.276 50.1818 166.733C50.4525 167.19 50.5878 167.708 50.5878 168.287ZM46.9758 169.701C47.5172 169.701 47.9185 169.58 48.1798 169.337C48.4412 169.085 48.5718 168.735 48.5718 168.287C48.5718 167.335 48.0398 166.859 46.9758 166.859H45.4218V169.701H46.9758ZM59.1894 170.989C59.1894 171.269 59.1708 171.521 59.1334 171.745H53.4634C53.5101 172.305 53.7061 172.744 54.0514 173.061C54.3968 173.378 54.8214 173.537 55.3254 173.537C56.0534 173.537 56.5714 173.224 56.8794 172.599H58.9934C58.7694 173.346 58.3401 173.962 57.7054 174.447C57.0708 174.923 56.2914 175.161 55.3674 175.161C54.6208 175.161 53.9488 174.998 53.3514 174.671C52.7634 174.335 52.3014 173.864 51.9654 173.257C51.6388 172.65 51.4754 171.95 51.4754 171.157C51.4754 170.354 51.6388 169.65 51.9654 169.043C52.2921 168.436 52.7494 167.97 53.3374 167.643C53.9254 167.316 54.6021 167.153 55.3674 167.153C56.1048 167.153 56.7628 167.312 57.3414 167.629C57.9294 167.946 58.3821 168.399 58.6994 168.987C59.0261 169.566 59.1894 170.233 59.1894 170.989ZM57.1594 170.429C57.1501 169.925 56.9681 169.524 56.6134 169.225C56.2588 168.917 55.8248 168.763 55.3114 168.763C54.8261 168.763 54.4154 168.912 54.0794 169.211C53.7528 169.5 53.5521 169.906 53.4774 170.429H57.1594ZM64.0641 175.161C63.3174 175.161 62.6454 174.998 62.0481 174.671C61.4507 174.335 60.9794 173.864 60.6341 173.257C60.2981 172.65 60.1301 171.95 60.1301 171.157C60.1301 170.364 60.3027 169.664 60.6481 169.057C61.0027 168.45 61.4834 167.984 62.0901 167.657C62.6967 167.321 63.3734 167.153 64.1201 167.153C64.8667 167.153 65.5434 167.321 66.1501 167.657C66.7567 167.984 67.2327 168.45 67.5781 169.057C67.9327 169.664 68.1101 170.364 68.1101 171.157C68.1101 171.95 67.9281 172.65 67.5641 173.257C67.2094 173.864 66.7241 174.335 66.1081 174.671C65.5014 174.998 64.8201 175.161 64.0641 175.161ZM64.0641 173.453C64.4187 173.453 64.7501 173.369 65.0581 173.201C65.3754 173.024 65.6274 172.762 65.8141 172.417C66.0007 172.072 66.0941 171.652 66.0941 171.157C66.0941 170.42 65.8981 169.855 65.5061 169.463C65.1234 169.062 64.6521 168.861 64.0921 168.861C63.5321 168.861 63.0607 169.062 62.6781 169.463C62.3047 169.855 62.1181 170.42 62.1181 171.157C62.1181 171.894 62.3001 172.464 62.6641 172.865C63.0374 173.257 63.5041 173.453 64.0641 173.453ZM71.5078 168.399C71.7598 168.044 72.1051 167.75 72.5438 167.517C72.9918 167.274 73.5005 167.153 74.0698 167.153C74.7325 167.153 75.3298 167.316 75.8618 167.643C76.4031 167.97 76.8278 168.436 77.1358 169.043C77.4531 169.64 77.6118 170.336 77.6118 171.129C77.6118 171.922 77.4531 172.627 77.1358 173.243C76.8278 173.85 76.4031 174.321 75.8618 174.657C75.3298 174.993 74.7325 175.161 74.0698 175.161C73.5005 175.161 72.9965 175.044 72.5578 174.811C72.1285 174.578 71.7785 174.284 71.5078 173.929V178.731H69.5478V167.279H71.5078V168.399ZM75.6098 171.129C75.6098 170.662 75.5118 170.261 75.3158 169.925C75.1291 169.58 74.8771 169.318 74.5598 169.141C74.2518 168.964 73.9158 168.875 73.5518 168.875C73.1971 168.875 72.8611 168.968 72.5438 169.155C72.2358 169.332 71.9838 169.594 71.7878 169.939C71.6011 170.284 71.5078 170.69 71.5078 171.157C71.5078 171.624 71.6011 172.03 71.7878 172.375C71.9838 172.72 72.2358 172.986 72.5438 173.173C72.8611 173.35 73.1971 173.439 73.5518 173.439C73.9158 173.439 74.2518 173.346 74.5598 173.159C74.8771 172.972 75.1291 172.706 75.3158 172.361C75.5118 172.016 75.6098 171.605 75.6098 171.129ZM80.9961 164.675V175.035H79.0361V164.675H80.9961ZM90.1426 170.989C90.1426 171.269 90.1239 171.521 90.0866 171.745H84.4166C84.4632 172.305 84.6592 172.744 85.0046 173.061C85.3499 173.378 85.7746 173.537 86.2786 173.537C87.0066 173.537 87.5246 173.224 87.8326 172.599H89.9466C89.7226 173.346 89.2932 173.962 88.6586 174.447C88.0239 174.923 87.2446 175.161 86.3206 175.161C85.5739 175.161 84.9019 174.998 84.3046 174.671C83.7166 174.335 83.2546 173.864 82.9186 173.257C82.5919 172.65 82.4286 171.95 82.4286 171.157C82.4286 170.354 82.5919 169.65 82.9186 169.043C83.2452 168.436 83.7026 167.97 84.2906 167.643C84.8786 167.316 85.5552 167.153 86.3206 167.153C87.0579 167.153 87.7159 167.312 88.2946 167.629C88.8826 167.946 89.3352 168.399 89.6526 168.987C89.9792 169.566 90.1426 170.233 90.1426 170.989ZM88.1126 170.429C88.1032 169.925 87.9212 169.524 87.5666 169.225C87.2119 168.917 86.7779 168.763 86.2646 168.763C85.7792 168.763 85.3686 168.912 85.0326 169.211C84.7059 169.5 84.5052 169.906 84.4306 170.429H88.1126ZM93.7152 172.977L92.0772 176.911H90.8172L91.7272 172.977H93.7152ZM103.504 175.035L101.348 171.227H100.424V175.035H98.4638V165.263H102.132C102.888 165.263 103.532 165.398 104.064 165.669C104.596 165.93 104.992 166.29 105.254 166.747C105.524 167.195 105.66 167.699 105.66 168.259C105.66 168.903 105.473 169.486 105.1 170.009C104.726 170.522 104.171 170.877 103.434 171.073L105.772 175.035H103.504ZM100.424 169.757H102.062C102.594 169.757 102.99 169.631 103.252 169.379C103.513 169.118 103.644 168.758 103.644 168.301C103.644 167.853 103.513 167.508 103.252 167.265C102.99 167.013 102.594 166.887 102.062 166.887H100.424V169.757ZM114.643 170.989C114.643 171.269 114.624 171.521 114.587 171.745H108.917C108.963 172.305 109.159 172.744 109.505 173.061C109.85 173.378 110.275 173.537 110.779 173.537C111.507 173.537 112.025 173.224 112.333 172.599H114.447C114.223 173.346 113.793 173.962 113.159 174.447C112.524 174.923 111.745 175.161 110.821 175.161C110.074 175.161 109.402 174.998 108.805 174.671C108.217 174.335 107.755 173.864 107.419 173.257C107.092 172.65 106.929 171.95 106.929 171.157C106.929 170.354 107.092 169.65 107.419 169.043C107.745 168.436 108.203 167.97 108.791 167.643C109.379 167.316 110.055 167.153 110.821 167.153C111.558 167.153 112.216 167.312 112.795 167.629C113.383 167.946 113.835 168.399 114.153 168.987C114.479 169.566 114.643 170.233 114.643 170.989ZM112.613 170.429C112.603 169.925 112.421 169.524 112.067 169.225C111.712 168.917 111.278 168.763 110.765 168.763C110.279 168.763 109.869 168.912 109.533 169.211C109.206 169.5 109.005 169.906 108.931 170.429H112.613ZM115.569 171.129C115.569 170.345 115.723 169.65 116.031 169.043C116.349 168.436 116.773 167.97 117.305 167.643C117.847 167.316 118.449 167.153 119.111 167.153C119.69 167.153 120.194 167.27 120.623 167.503C121.062 167.736 121.412 168.03 121.673 168.385V167.279H123.647V175.035H121.673V173.901C121.421 174.265 121.071 174.568 120.623 174.811C120.185 175.044 119.676 175.161 119.097 175.161C118.444 175.161 117.847 174.993 117.305 174.657C116.773 174.321 116.349 173.85 116.031 173.243C115.723 172.627 115.569 171.922 115.569 171.129ZM121.673 171.157C121.673 170.681 121.58 170.275 121.393 169.939C121.207 169.594 120.955 169.332 120.637 169.155C120.32 168.968 119.979 168.875 119.615 168.875C119.251 168.875 118.915 168.964 118.607 169.141C118.299 169.318 118.047 169.58 117.851 169.925C117.665 170.261 117.571 170.662 117.571 171.129C117.571 171.596 117.665 172.006 117.851 172.361C118.047 172.706 118.299 172.972 118.607 173.159C118.925 173.346 119.261 173.439 119.615 173.439C119.979 173.439 120.32 173.35 120.637 173.173C120.955 172.986 121.207 172.725 121.393 172.389C121.58 172.044 121.673 171.633 121.673 171.157ZM127.521 164.675V175.035H125.561V164.675H127.521ZM134.754 165.263V175.035H132.794V165.263H134.754ZM140.988 167.167C141.912 167.167 142.659 167.461 143.228 168.049C143.798 168.628 144.082 169.44 144.082 170.485V175.035H142.122V170.751C142.122 170.135 141.968 169.664 141.66 169.337C141.352 169.001 140.932 168.833 140.4 168.833C139.859 168.833 139.43 169.001 139.112 169.337C138.804 169.664 138.65 170.135 138.65 170.751V175.035H136.69V167.279H138.65V168.245C138.912 167.909 139.243 167.648 139.644 167.461C140.055 167.265 140.503 167.167 140.988 167.167ZM148.914 175.161C148.28 175.161 147.71 175.049 147.206 174.825C146.702 174.592 146.301 174.279 146.002 173.887C145.713 173.495 145.554 173.061 145.526 172.585H147.5C147.538 172.884 147.682 173.131 147.934 173.327C148.196 173.523 148.518 173.621 148.9 173.621C149.274 173.621 149.563 173.546 149.768 173.397C149.983 173.248 150.09 173.056 150.09 172.823C150.09 172.571 149.96 172.384 149.698 172.263C149.446 172.132 149.04 171.992 148.48 171.843C147.902 171.703 147.426 171.558 147.052 171.409C146.688 171.26 146.371 171.031 146.1 170.723C145.839 170.415 145.708 170 145.708 169.477C145.708 169.048 145.83 168.656 146.072 168.301C146.324 167.946 146.679 167.666 147.136 167.461C147.603 167.256 148.149 167.153 148.774 167.153C149.698 167.153 150.436 167.386 150.986 167.853C151.537 168.31 151.84 168.931 151.896 169.715H150.02C149.992 169.407 149.862 169.164 149.628 168.987C149.404 168.8 149.101 168.707 148.718 168.707C148.364 168.707 148.088 168.772 147.892 168.903C147.706 169.034 147.612 169.216 147.612 169.449C147.612 169.71 147.743 169.911 148.004 170.051C148.266 170.182 148.672 170.317 149.222 170.457C149.782 170.597 150.244 170.742 150.608 170.891C150.972 171.04 151.285 171.274 151.546 171.591C151.817 171.899 151.957 172.31 151.966 172.823C151.966 173.271 151.84 173.672 151.588 174.027C151.346 174.382 150.991 174.662 150.524 174.867C150.067 175.063 149.53 175.161 148.914 175.161ZM155.857 168.889V172.641C155.857 172.902 155.918 173.094 156.039 173.215C156.17 173.327 156.384 173.383 156.683 173.383H157.593V175.035H156.361C154.709 175.035 153.883 174.232 153.883 172.627V168.889H152.959V167.279H153.883V165.361H155.857V167.279H157.593V168.889H155.857ZM158.499 171.129C158.499 170.345 158.653 169.65 158.961 169.043C159.278 168.436 159.703 167.97 160.235 167.643C160.776 167.316 161.378 167.153 162.041 167.153C162.62 167.153 163.124 167.27 163.553 167.503C163.992 167.736 164.342 168.03 164.603 168.385V167.279H166.577V175.035H164.603V173.901C164.351 174.265 164.001 174.568 163.553 174.811C163.114 175.044 162.606 175.161 162.027 175.161C161.374 175.161 160.776 174.993 160.235 174.657C159.703 174.321 159.278 173.85 158.961 173.243C158.653 172.627 158.499 171.922 158.499 171.129ZM164.603 171.157C164.603 170.681 164.51 170.275 164.323 169.939C164.136 169.594 163.884 169.332 163.567 169.155C163.25 168.968 162.909 168.875 162.545 168.875C162.181 168.875 161.845 168.964 161.537 169.141C161.229 169.318 160.977 169.58 160.781 169.925C160.594 170.261 160.501 170.662 160.501 171.129C160.501 171.596 160.594 172.006 160.781 172.361C160.977 172.706 161.229 172.972 161.537 173.159C161.854 173.346 162.19 173.439 162.545 173.439C162.909 173.439 163.25 173.35 163.567 173.173C163.884 172.986 164.136 172.725 164.323 172.389C164.51 172.044 164.603 171.633 164.603 171.157ZM170.451 164.675V175.035H168.491V164.675H170.451ZM174.348 164.675V175.035H172.388V164.675H174.348ZM178.426 172.977L176.788 176.911H175.528L176.438 172.977H178.426ZM188.215 175.035L186.059 171.227H185.135V175.035H183.175V165.263H186.843C187.599 165.263 188.243 165.398 188.775 165.669C189.307 165.93 189.703 166.29 189.965 166.747C190.235 167.195 190.371 167.699 190.371 168.259C190.371 168.903 190.184 169.486 189.811 170.009C189.437 170.522 188.882 170.877 188.145 171.073L190.483 175.035H188.215ZM185.135 169.757H186.773C187.305 169.757 187.701 169.631 187.963 169.379C188.224 169.118 188.355 168.758 188.355 168.301C188.355 167.853 188.224 167.508 187.963 167.265C187.701 167.013 187.305 166.887 186.773 166.887H185.135V169.757ZM199.353 170.989C199.353 171.269 199.335 171.521 199.297 171.745H193.627C193.674 172.305 193.87 172.744 194.215 173.061C194.561 173.378 194.985 173.537 195.489 173.537C196.217 173.537 196.735 173.224 197.043 172.599H199.157C198.933 173.346 198.504 173.962 197.869 174.447C197.235 174.923 196.455 175.161 195.531 175.161C194.785 175.161 194.113 174.998 193.515 174.671C192.927 174.335 192.465 173.864 192.129 173.257C191.803 172.65 191.639 171.95 191.639 171.157C191.639 170.354 191.803 169.65 192.129 169.043C192.456 168.436 192.913 167.97 193.501 167.643C194.089 167.316 194.766 167.153 195.531 167.153C196.269 167.153 196.927 167.312 197.505 167.629C198.093 167.946 198.546 168.399 198.863 168.987C199.19 169.566 199.353 170.233 199.353 170.989ZM197.323 170.429C197.314 169.925 197.132 169.524 196.777 169.225C196.423 168.917 195.989 168.763 195.475 168.763C194.99 168.763 194.579 168.912 194.243 169.211C193.917 169.5 193.716 169.906 193.641 170.429H197.323ZM200.28 171.129C200.28 170.345 200.434 169.65 200.742 169.043C201.059 168.436 201.484 167.97 202.016 167.643C202.557 167.316 203.159 167.153 203.822 167.153C204.401 167.153 204.905 167.27 205.334 167.503C205.773 167.736 206.123 168.03 206.384 168.385V167.279H208.358V175.035H206.384V173.901C206.132 174.265 205.782 174.568 205.334 174.811C204.895 175.044 204.387 175.161 203.808 175.161C203.155 175.161 202.557 174.993 202.016 174.657C201.484 174.321 201.059 173.85 200.742 173.243C200.434 172.627 200.28 171.922 200.28 171.129ZM206.384 171.157C206.384 170.681 206.291 170.275 206.104 169.939C205.917 169.594 205.665 169.332 205.348 169.155C205.031 168.968 204.69 168.875 204.326 168.875C203.962 168.875 203.626 168.964 203.318 169.141C203.01 169.318 202.758 169.58 202.562 169.925C202.375 170.261 202.282 170.662 202.282 171.129C202.282 171.596 202.375 172.006 202.562 172.361C202.758 172.706 203.01 172.972 203.318 173.159C203.635 173.346 203.971 173.439 204.326 173.439C204.69 173.439 205.031 173.35 205.348 173.173C205.665 172.986 205.917 172.725 206.104 172.389C206.291 172.044 206.384 171.633 206.384 171.157ZM212.232 164.675V175.035H210.272V164.675H212.232ZM223.049 170.023C223.599 170.126 224.052 170.401 224.407 170.849C224.761 171.297 224.939 171.81 224.939 172.389C224.939 172.912 224.808 173.374 224.547 173.775C224.295 174.167 223.926 174.475 223.441 174.699C222.955 174.923 222.381 175.035 221.719 175.035H217.505V165.263H221.537C222.199 165.263 222.769 165.37 223.245 165.585C223.73 165.8 224.094 166.098 224.337 166.481C224.589 166.864 224.715 167.298 224.715 167.783C224.715 168.352 224.561 168.828 224.253 169.211C223.954 169.594 223.553 169.864 223.049 170.023ZM219.465 169.295H221.257C221.723 169.295 222.083 169.192 222.335 168.987C222.587 168.772 222.713 168.469 222.713 168.077C222.713 167.685 222.587 167.382 222.335 167.167C222.083 166.952 221.723 166.845 221.257 166.845H219.465V169.295ZM221.439 173.439C221.915 173.439 222.283 173.327 222.545 173.103C222.815 172.879 222.951 172.562 222.951 172.151C222.951 171.731 222.811 171.404 222.531 171.171C222.251 170.928 221.873 170.807 221.397 170.807H219.465V173.439H221.439ZM225.997 171.129C225.997 170.345 226.151 169.65 226.459 169.043C226.776 168.436 227.201 167.97 227.733 167.643C228.274 167.316 228.876 167.153 229.539 167.153C230.118 167.153 230.622 167.27 231.051 167.503C231.49 167.736 231.84 168.03 232.101 168.385V167.279H234.075V175.035H232.101V173.901C231.849 174.265 231.499 174.568 231.051 174.811C230.612 175.044 230.104 175.161 229.525 175.161C228.872 175.161 228.274 174.993 227.733 174.657C227.201 174.321 226.776 173.85 226.459 173.243C226.151 172.627 225.997 171.922 225.997 171.129ZM232.101 171.157C232.101 170.681 232.008 170.275 231.821 169.939C231.634 169.594 231.382 169.332 231.065 169.155C230.748 168.968 230.407 168.875 230.043 168.875C229.679 168.875 229.343 168.964 229.035 169.141C228.727 169.318 228.475 169.58 228.279 169.925C228.092 170.261 227.999 170.662 227.999 171.129C227.999 171.596 228.092 172.006 228.279 172.361C228.475 172.706 228.727 172.972 229.035 173.159C229.352 173.346 229.688 173.439 230.043 173.439C230.407 173.439 230.748 173.35 231.065 173.173C231.382 172.986 231.634 172.725 231.821 172.389C232.008 172.044 232.101 171.633 232.101 171.157ZM235.485 171.157C235.485 170.354 235.649 169.654 235.975 169.057C236.302 168.45 236.755 167.984 237.333 167.657C237.912 167.321 238.575 167.153 239.321 167.153C240.283 167.153 241.076 167.396 241.701 167.881C242.336 168.357 242.761 169.029 242.975 169.897H240.861C240.749 169.561 240.558 169.3 240.287 169.113C240.026 168.917 239.699 168.819 239.307 168.819C238.747 168.819 238.304 169.024 237.977 169.435C237.651 169.836 237.487 170.41 237.487 171.157C237.487 171.894 237.651 172.468 237.977 172.879C238.304 173.28 238.747 173.481 239.307 173.481C240.101 173.481 240.619 173.126 240.861 172.417H242.975C242.761 173.257 242.336 173.924 241.701 174.419C241.067 174.914 240.273 175.161 239.321 175.161C238.575 175.161 237.912 174.998 237.333 174.671C236.755 174.335 236.302 173.868 235.975 173.271C235.649 172.664 235.485 171.96 235.485 171.157ZM249.003 175.035L246.371 171.731V175.035H244.411V164.675H246.371V170.569L248.975 167.279H251.523L248.107 171.171L251.551 175.035H249.003ZM257.855 165.263V171.311C257.855 171.974 258.027 172.482 258.373 172.837C258.718 173.182 259.203 173.355 259.829 173.355C260.463 173.355 260.953 173.182 261.299 172.837C261.644 172.482 261.817 171.974 261.817 171.311V165.263H263.791V171.297C263.791 172.128 263.609 172.832 263.245 173.411C262.89 173.98 262.409 174.41 261.803 174.699C261.205 174.988 260.538 175.133 259.801 175.133C259.073 175.133 258.41 174.988 257.813 174.699C257.225 174.41 256.758 173.98 256.413 173.411C256.067 172.832 255.895 172.128 255.895 171.297V165.263H257.855ZM267.645 168.399C267.897 168.044 268.242 167.75 268.681 167.517C269.129 167.274 269.637 167.153 270.207 167.153C270.869 167.153 271.467 167.316 271.999 167.643C272.54 167.97 272.965 168.436 273.273 169.043C273.59 169.64 273.749 170.336 273.749 171.129C273.749 171.922 273.59 172.627 273.273 173.243C272.965 173.85 272.54 174.321 271.999 174.657C271.467 174.993 270.869 175.161 270.207 175.161C269.637 175.161 269.133 175.044 268.695 174.811C268.265 174.578 267.915 174.284 267.645 173.929V178.731H265.685V167.279H267.645V168.399ZM271.747 171.129C271.747 170.662 271.649 170.261 271.453 169.925C271.266 169.58 271.014 169.318 270.697 169.141C270.389 168.964 270.053 168.875 269.689 168.875C269.334 168.875 268.998 168.968 268.681 169.155C268.373 169.332 268.121 169.594 267.925 169.939C267.738 170.284 267.645 170.69 267.645 171.157C267.645 171.624 267.738 172.03 267.925 172.375C268.121 172.72 268.373 172.986 268.681 173.173C268.998 173.35 269.334 173.439 269.689 173.439C270.053 173.439 270.389 173.346 270.697 173.159C271.014 172.972 271.266 172.706 271.453 172.361C271.649 172.016 271.747 171.605 271.747 171.129Z" fill="#1D365F"/>
</svg>
