<svg width="403" height="402" viewBox="0 0 403 402" fill="none" xmlns="http://www.w3.org/2000/svg">
<path d="M273.083 253.422C256.413 276.277 229.614 290.125 201.018 290.125C170.629 290.125 142.122 274.388 125.821 248.833L60.7813 248.374L28.7979 304.698C65.082 364.804 130.758 402 201.018 402C269.278 402 333.096 366.976 369.974 309.939L305.446 310.401L273.083 253.422Z" fill="#10A19A"/>
<path d="M376.967 298.27C393.381 268.635 402.038 235.074 402.038 200.983C402.038 93.4546 317.182 5.37525 210.914 0.202881L243.566 55.8362L210.414 112.33C255.168 117.041 290.163 155.002 290.163 200.983C290.163 215.332 286.679 229.504 280.062 242.184L312.182 298.733L376.967 298.27Z" fill="#2FAC6A"/>
<path d="M230.093 55.8357L197.322 0C88.2121 1.97876 0 91.4537 0 200.982C0 233.009 7.63964 264.549 22.1752 292.829L54.0444 236.706L119.554 237.17C114.51 225.822 111.874 213.482 111.874 200.982C111.874 153.22 149.839 113.954 197.178 111.931L230.093 55.8357Z" fill="#B5C200"/>
<path d="M55.1292 154.874L71.9707 165.988L70.5797 171.617L50.4972 173.598L51.6809 168.811L66.7513 167.683L53.9512 159.634L55.1292 154.874Z" fill="white"/>
<path d="M58.0021 147.426L75.9111 153.827L74.3518 158.189L56.4429 151.788L58.0021 147.426Z" fill="white"/>
<path d="M77.7254 147.964C76.8547 148.773 75.8783 149.292 74.7975 149.52C73.7182 149.747 72.6044 149.616 71.4579 149.125L73.527 144.65C74.1963 144.88 74.7868 144.884 75.2967 144.662C75.8081 144.44 76.2031 144.027 76.4834 143.42C76.771 142.797 76.8562 142.238 76.7353 141.745C76.6159 141.253 76.3014 140.887 75.7931 140.653C75.3669 140.455 74.9477 140.437 74.5364 140.594C74.1248 140.753 73.7328 140.999 73.3588 141.333C72.986 141.669 72.5061 142.168 71.9202 142.832C71.0601 143.789 70.2953 144.539 69.6257 145.084C68.9549 145.63 68.1663 146.003 67.2598 146.199C66.3518 146.397 65.3577 146.245 64.2753 145.745C62.6697 145.002 61.6798 143.839 61.3086 142.254C60.9358 140.67 61.1819 138.943 62.0465 137.074C62.9246 135.172 64.0888 133.849 65.5366 133.105C66.9856 132.363 68.5391 132.326 70.1997 132.994L68.0976 137.543C67.5251 137.318 66.9914 137.32 66.498 137.55C66.0031 137.779 65.6199 138.189 65.347 138.779C65.1116 139.288 65.0579 139.759 65.1846 140.196C65.3113 140.633 65.6288 140.968 66.1371 141.204C66.6947 141.462 67.2494 141.401 67.8039 141.019C68.3571 140.639 69.0725 139.974 69.949 139.026C70.8406 138.085 71.6203 137.347 72.2865 136.809C72.9527 136.271 73.7325 135.899 74.6225 135.695C75.5125 135.49 76.474 135.625 77.5071 136.104C78.4912 136.558 79.2691 137.222 79.8416 138.093C80.4141 138.965 80.7166 139.986 80.7539 141.156C80.7896 142.327 80.5078 143.559 79.9085 144.855C79.3256 146.118 78.5974 147.153 77.7254 147.964Z" fill="white"/>
<path d="M69.8034 122.888L86.2841 132.382L83.9704 136.397L67.491 126.903L69.8034 122.888Z" fill="white"/>
<path d="M89.2299 113.543C90.3169 113.494 91.3098 113.786 92.2086 114.423C93.5056 115.341 94.2136 116.523 94.3315 117.966C94.4493 119.411 93.9333 120.943 92.7857 122.565L87.6676 129.796L72.1438 118.809L77.0887 111.821C78.2053 110.244 79.4412 109.264 80.795 108.884C82.1487 108.503 83.4442 108.751 84.6829 109.628C85.5967 110.275 86.1856 111.052 86.4509 111.958C86.7178 112.867 86.6863 113.801 86.3584 114.764C87.1858 114.001 88.1448 113.594 89.2299 113.543ZM81.1006 119.472L82.8537 116.996C83.2921 116.377 83.4918 115.805 83.453 115.28C83.4158 114.755 83.1309 114.305 82.6003 113.929C82.0697 113.553 81.5479 113.433 81.0319 113.566C80.5174 113.7 80.0405 114.076 79.6021 114.696L77.849 117.172L81.1006 119.472ZM89.8739 119.293C89.8305 118.743 89.5383 118.275 88.9927 117.889C88.4471 117.502 87.8911 117.38 87.326 117.524C86.7608 117.665 86.254 118.053 85.8055 118.686L83.8646 121.429L87.2921 123.855L89.2644 121.069C89.7133 120.435 89.9157 119.843 89.8739 119.293Z" fill="white"/>
<path d="M86.5705 99.9363L101.012 112.313L97.9961 115.831L83.5562 103.453L86.5705 99.9363Z" fill="white"/>
<path d="M103.7 104.255L107.983 99.957L110.517 102.481L102.963 110.062L89.4907 96.6385L92.7601 93.3557L103.7 104.255Z" fill="white"/>
<path d="M103.03 83.9038L115.462 98.2977L111.956 101.327L99.5242 86.9319L103.03 83.9038Z" fill="white"/>
<path d="M117.66 72.8721L119.833 75.8807L115.748 78.8309L124.712 91.239L120.957 93.9524L111.993 81.5443L107.91 84.4961L105.736 81.4875L117.66 72.8721Z" fill="white"/>
<path d="M135.326 62.8672L135.695 77.1969L138.725 82.7039L134.667 84.937L131.636 79.43L119.73 71.4469L124.335 68.914L131.403 74.1169L130.768 65.3748L135.326 62.8672Z" fill="white"/>
<path d="M276.534 90.6825L277.177 82.5113L276.25 81.9L272.302 87.8977L268.432 85.3498L278.888 69.4639L285.383 73.7395C286.636 74.5639 287.559 75.4853 288.153 76.5036C288.748 77.5218 289.013 78.5565 288.949 79.6059C288.885 80.6553 288.545 81.6482 287.929 82.583C287.235 83.64 286.315 84.3868 285.175 84.8238C284.031 85.2622 282.765 85.271 281.376 84.8537L280.9 93.5586L276.534 90.6825ZM278.052 79.1629L280.451 80.7417C281.159 81.2082 281.805 81.3841 282.389 81.2708C282.97 81.1575 283.471 80.7832 283.889 80.1497C284.285 79.5457 284.421 78.954 284.296 78.3742C284.169 77.7944 283.752 77.2696 283.042 76.8031L280.643 75.2243L278.052 79.1629Z" fill="white"/>
<path d="M295.945 86.1984L293.472 89.1457L298.224 93.1337L295.925 95.8724L291.173 91.8843L288.491 95.0807L293.865 99.5918L291.48 102.435L282.556 94.9451L294.782 80.377L303.706 87.8651L301.32 90.7083L295.945 86.1984Z" fill="white"/>
<path d="M299.107 105.033L303.345 109.374L300.787 111.873L293.311 104.216L306.919 90.9287L310.155 94.2442L299.107 105.033Z" fill="white"/>
<path d="M311.845 120.353L307.517 114.725L304.16 115.871L301.203 112.026L320.475 105.887L323.744 110.139L312.864 127.19L309.875 123.302L311.845 120.353ZM313.953 117.227L318.034 111.114L311.095 113.512L313.953 117.227Z" fill="white"/>
<path d="M336.799 130.757L333.591 132.622L331.058 128.264L317.824 135.955L315.495 131.949L328.731 124.258L326.199 119.901L329.409 118.037L336.799 130.757Z" fill="white"/>
<path d="M340.256 138.26L323.042 146.346L321.073 142.153L338.287 134.067L340.256 138.26Z" fill="white"/>
<path d="M326.767 152.344C327.066 150.665 327.775 149.167 328.898 147.852C330.019 146.537 331.459 145.576 333.218 144.969C334.976 144.361 336.698 144.228 338.384 144.572C340.07 144.917 341.549 145.656 342.822 146.794C344.094 147.931 345.022 149.344 345.607 151.034C346.19 152.724 346.333 154.409 346.035 156.089C345.736 157.768 345.027 159.255 343.909 160.551C342.789 161.845 341.35 162.796 339.591 163.404C337.833 164.013 336.109 164.15 334.417 163.818C332.726 163.485 331.244 162.755 329.975 161.626C328.707 160.497 327.78 159.088 327.195 157.399C326.611 155.709 326.468 154.024 326.767 152.344ZM333.815 158.966C335.068 159.497 336.48 159.492 338.051 158.948C339.639 158.399 340.757 157.53 341.407 156.341C342.056 155.151 342.133 153.839 341.637 152.406C341.136 150.954 340.267 149.96 339.029 149.423C337.792 148.885 336.371 148.894 334.767 149.448C333.179 149.997 332.061 150.866 331.411 152.057C330.763 153.246 330.688 154.566 331.191 156.017C331.686 157.451 332.561 158.434 333.815 158.966Z" fill="white"/>
<path d="M334.007 185.092L333.171 180.536L343.311 170.797L331.772 172.915L330.936 168.358L349.643 164.926L350.479 169.482L340.286 179.231L351.877 177.103L352.714 181.661L334.007 185.092Z" fill="white"/>
<path d="M334.83 190.914C335.228 189.791 335.853 188.88 336.705 188.18C337.557 187.477 338.605 187.079 339.848 186.982L340.085 191.908C339.386 192.014 338.859 192.284 338.511 192.716C338.16 193.148 338.002 193.698 338.034 194.366C338.068 195.052 338.251 195.586 338.587 195.967C338.921 196.349 339.368 196.526 339.927 196.499C340.397 196.477 340.777 196.3 341.069 195.969C341.36 195.639 341.594 195.238 341.77 194.769C341.946 194.299 342.14 193.634 342.351 192.774C342.672 191.529 343.001 190.509 343.343 189.716C343.684 188.922 344.212 188.227 344.924 187.632C345.637 187.037 346.588 186.711 347.779 186.654C349.548 186.568 350.962 187.142 352.027 188.375C353.089 189.606 353.671 191.252 353.769 193.308C353.871 195.401 353.452 197.111 352.513 198.441C351.574 199.771 350.213 200.523 348.431 200.699L348.189 195.693C348.801 195.627 349.272 195.379 349.604 194.946C349.935 194.514 350.086 193.974 350.055 193.324C350.028 192.765 349.858 192.321 349.543 191.993C349.229 191.665 348.792 191.515 348.233 191.542C347.619 191.572 347.155 191.883 346.84 192.477C346.526 193.071 346.199 193.991 345.861 195.236C345.506 196.484 345.157 197.499 344.816 198.285C344.473 199.069 343.956 199.759 343.261 200.352C342.566 200.947 341.651 201.272 340.513 201.327C339.431 201.379 338.435 201.151 337.524 200.643C336.613 200.136 335.871 199.371 335.298 198.35C334.724 197.329 334.402 196.106 334.334 194.681C334.267 193.292 334.432 192.036 334.83 190.914Z" fill="white"/>
<path d="M352.505 221.794L333.549 220.247L333.926 215.628L341.731 216.267L342.317 209.084L334.512 208.446L334.889 203.829L353.845 205.375L353.469 209.993L346.044 209.388L345.456 216.571L352.882 217.176L352.505 221.794Z" fill="white"/>
<path d="M350.737 231.103L332.033 227.657L332.872 223.101L351.576 226.547L350.737 231.103Z" fill="white"/>
<path d="M337.409 246.354C336.666 245.621 336.166 244.676 335.908 243.516C335.65 242.356 335.73 241.029 336.148 239.532L336.918 236.768L330.342 234.932L331.587 230.471L349.906 235.582L347.89 242.809C347.482 244.27 346.886 245.436 346.1 246.303C345.313 247.171 344.406 247.735 343.378 247.991C342.351 248.247 341.262 248.217 340.115 247.896C339.053 247.6 338.151 247.085 337.409 246.354ZM339.86 242.258C340.143 242.786 340.65 243.152 341.38 243.355C342.112 243.561 342.735 243.51 343.251 243.203C343.769 242.896 344.146 242.317 344.384 241.465L345.061 239.038L340.468 237.759L339.791 240.186C339.553 241.035 339.575 241.727 339.86 242.258Z" fill="white"/>
<path d="M326.261 249.267C327.102 248.423 328.056 247.868 329.126 247.6C330.197 247.329 331.315 247.418 332.479 247.865L330.584 252.415C329.906 252.212 329.317 252.23 328.814 252.472C328.313 252.714 327.935 253.143 327.677 253.76C327.415 254.392 327.352 254.953 327.491 255.442C327.629 255.931 327.957 256.283 328.475 256.497C328.908 256.679 329.327 256.682 329.733 256.506C330.137 256.333 330.52 256.071 330.881 255.725C331.242 255.373 331.701 254.857 332.261 254.171C333.082 253.182 333.818 252.403 334.466 251.831C335.115 251.258 335.888 250.859 336.787 250.626C337.687 250.394 338.687 250.507 339.787 250.963C341.421 251.643 342.454 252.767 342.888 254.339C343.32 255.907 343.141 257.642 342.349 259.545C341.544 261.477 340.432 262.845 339.014 263.644C337.597 264.44 336.045 264.539 334.359 263.937L336.285 259.309C336.865 259.512 337.398 259.488 337.883 259.241C338.367 258.99 338.736 258.567 338.985 257.967C339.201 257.449 339.236 256.975 339.093 256.545C338.95 256.113 338.619 255.791 338.102 255.576C337.535 255.338 336.982 255.421 336.444 255.824C335.904 256.226 335.216 256.918 334.376 257.899C333.522 258.871 332.771 259.64 332.127 260.204C331.481 260.767 330.718 261.167 329.835 261.408C328.953 261.647 327.987 261.548 326.936 261.11C325.936 260.696 325.133 260.06 324.528 259.214C323.921 258.364 323.579 257.356 323.498 256.187C323.416 255.019 323.65 253.775 324.199 252.457C324.734 251.175 325.42 250.11 326.261 249.267Z" fill="white"/>
<path d="M98.306 294.161C99.9174 293.678 101.529 293.652 103.144 294.081C104.757 294.51 106.222 295.372 107.539 296.66C109.152 298.24 110.115 300.017 110.429 301.994C110.744 303.971 110.374 305.882 109.32 307.734L105.681 304.171C105.966 303.336 106.006 302.528 105.801 301.747C105.593 300.963 105.174 300.262 104.542 299.642C103.523 298.643 102.349 298.189 101.023 298.279C99.6942 298.371 98.4495 299.01 97.2868 300.196C96.1242 301.382 95.5114 302.641 95.4485 303.971C95.3859 305.298 95.8644 306.463 96.8841 307.462C97.5161 308.079 98.226 308.485 99.0146 308.676C99.8017 308.864 100.608 308.807 101.436 308.506L105.075 312.069C103.247 313.16 101.345 313.569 99.3682 313.288C97.3928 313.008 95.5978 312.078 93.9848 310.5C92.6683 309.209 91.7783 307.763 91.3148 306.159C90.8514 304.555 90.8407 302.945 91.2834 301.332C91.7261 299.716 92.6057 298.24 93.9192 296.898C95.2342 295.556 96.696 294.644 98.306 294.161Z" fill="white"/>
<path d="M108.343 321.497C107.619 319.953 107.337 318.319 107.498 316.598C107.657 314.875 108.28 313.262 109.369 311.75C110.456 310.242 111.787 309.141 113.364 308.453C114.94 307.764 116.576 307.516 118.27 307.713C119.965 307.91 121.538 308.53 122.989 309.574C124.439 310.62 125.526 311.914 126.251 313.459C126.974 315.006 127.251 316.628 127.083 318.334C126.913 320.036 126.284 321.643 125.197 323.152C124.11 324.661 122.779 325.767 121.205 326.47C119.63 327.171 117.999 327.428 116.312 327.237C114.626 327.046 113.056 326.426 111.605 325.382C110.155 324.336 109.067 323.042 108.343 321.497ZM117.919 322.851C119.25 322.562 120.401 321.745 121.372 320.397C122.354 319.035 122.767 317.678 122.614 316.333C122.458 314.985 121.767 313.87 120.535 312.982C119.289 312.084 118.005 311.774 116.685 312.045C115.364 312.32 114.209 313.146 113.216 314.523C112.235 315.886 111.82 317.239 111.975 318.587C112.129 319.932 112.83 321.056 114.076 321.953C115.306 322.839 116.588 323.137 117.919 322.851Z" fill="white"/>
<path d="M139.035 341.16L134.91 339.052L133.351 325.08L128.011 335.525L123.885 333.414L132.544 316.481L136.669 318.589L138.203 332.612L143.567 322.117L147.692 324.228L139.035 341.16Z" fill="white"/>
<path d="M167.189 331.021L154.702 346.874L149.21 345.013L148.917 324.837L153.587 326.417L153.45 341.531L162.544 329.449L167.189 331.021Z" fill="white"/>
<path d="M172.495 335.726L171.73 339.494L177.809 340.729L177.098 344.235L171.019 343.001L170.188 347.088L177.065 348.484L176.326 352.121L164.909 349.805L168.693 331.167L180.11 333.483L179.372 337.121L172.495 335.726Z" fill="white"/>
<path d="M190.721 353.668L187.376 346.184L186.268 346.092L185.673 353.248L181.056 352.863L182.634 333.909L190.383 334.553C191.877 334.678 193.129 335.045 194.138 335.656C195.148 336.264 195.875 337.045 196.322 338C196.768 338.951 196.945 339.985 196.851 341.1C196.747 342.362 196.297 343.456 195.504 344.386C194.71 345.316 193.604 345.934 192.184 346.232L195.933 354.1L190.721 353.668ZM186.541 342.824L189.402 343.063C190.249 343.134 190.9 342.979 191.358 342.6C191.815 342.221 192.075 341.655 192.138 340.898C192.199 340.179 192.033 339.595 191.646 339.145C191.257 338.694 190.639 338.435 189.794 338.367L186.932 338.128L186.541 342.824Z" fill="white"/>
<path d="M203.637 353.519C202.519 353.111 201.613 352.479 200.92 351.62C200.225 350.761 199.836 349.709 199.751 348.465L204.678 348.271C204.778 348.972 205.042 349.5 205.473 349.852C205.902 350.207 206.451 350.371 207.119 350.344C207.805 350.317 208.34 350.138 208.725 349.804C209.109 349.473 209.29 349.029 209.269 348.468C209.249 348 209.076 347.618 208.748 347.323C208.421 347.028 208.022 346.793 207.554 346.611C207.086 346.432 206.423 346.232 205.564 346.011C204.322 345.683 203.306 345.343 202.515 344.995C201.724 344.646 201.033 344.112 200.445 343.396C199.856 342.678 199.538 341.724 199.492 340.531C199.422 338.763 200.007 337.353 201.248 336.3C202.49 335.248 204.141 334.681 206.198 334.601C208.291 334.518 209.998 334.95 211.32 335.901C212.641 336.852 213.38 338.221 213.543 340.004L208.534 340.201C208.474 339.589 208.23 339.115 207.8 338.782C207.371 338.445 206.831 338.29 206.181 338.317C205.622 338.337 205.177 338.504 204.846 338.818C204.515 339.128 204.361 339.563 204.383 340.123C204.407 340.735 204.714 341.203 205.306 341.522C205.896 341.844 206.813 342.178 208.057 342.527C209.3 342.893 210.312 343.248 211.095 343.597C211.877 343.946 212.562 344.471 213.151 345.171C213.738 345.872 214.054 346.79 214.1 347.926C214.142 349.009 213.906 350.004 213.391 350.908C212.875 351.814 212.104 352.551 211.078 353.114C210.053 353.681 208.826 353.991 207.4 354.048C206.011 354.102 204.757 353.925 203.637 353.519Z" fill="white"/>
<path d="M220.688 333.554L223.13 352.416L218.535 353.012L216.093 334.15L220.688 333.554Z" fill="white"/>
<path d="M231.819 349.885C230.177 349.425 228.756 348.573 227.556 347.326C226.355 346.083 225.54 344.556 225.106 342.747C224.671 340.937 224.707 339.21 225.214 337.568C225.721 335.922 226.602 334.523 227.857 333.366C229.111 332.209 230.609 331.425 232.347 331.008C234.086 330.59 235.776 330.611 237.419 331.07C239.062 331.533 240.474 332.382 241.653 333.622C242.832 334.863 243.64 336.387 244.074 338.196C244.508 340.003 244.478 341.735 243.981 343.384C243.487 345.036 242.616 346.44 241.369 347.591C240.123 348.745 238.631 349.532 236.891 349.95C235.153 350.367 233.462 350.344 231.819 349.885ZM239.095 343.513C239.746 342.317 239.877 340.913 239.49 339.297C239.098 337.663 238.342 336.464 237.221 335.704C236.099 334.941 234.802 334.738 233.326 335.09C231.834 335.447 230.759 336.216 230.105 337.394C229.449 338.575 229.319 339.988 229.716 341.64C230.108 343.274 230.864 344.473 231.985 345.233C233.106 345.996 234.412 346.196 235.906 345.838C237.38 345.486 238.445 344.712 239.095 343.513Z" fill="white"/>
<path d="M266.623 339.503L262.333 341.253L250.729 333.313L255.158 344.178L250.868 345.925L243.688 328.316L247.978 326.566L259.602 334.554L255.154 323.641L259.443 321.891L266.623 339.503Z" fill="white"/>
<path d="M252.348 211.205C253.717 211.205 254.933 211.51 255.997 212.118C257.061 212.704 257.887 213.584 258.473 214.757C259.081 215.908 259.385 217.298 259.385 218.927V229.515H254.824V219.546C254.824 218.112 254.466 217.016 253.749 216.255C253.032 215.473 252.055 215.082 250.817 215.082C249.557 215.082 248.558 215.473 247.82 216.255C247.103 217.016 246.745 218.112 246.745 219.546V229.515H242.183V205.406H246.745V213.714C247.331 212.932 248.113 212.324 249.09 211.89C250.068 211.434 251.154 211.205 252.348 211.205Z" fill="black"/>
<path d="M234.863 215.213V223.944C234.863 224.552 235.004 224.998 235.286 225.28C235.59 225.541 236.09 225.671 236.785 225.671H238.903V229.515H236.036C232.191 229.515 230.269 227.647 230.269 223.912V215.213H228.119V211.466H230.269V207.003H234.863V211.466H238.903V215.213H234.863Z" fill="black"/>
<path d="M227.084 211.466L221.807 229.516H216.887L213.596 216.907L210.306 229.516H205.354L200.043 211.466H204.67L207.862 225.215L211.316 211.466H216.138L219.526 225.182L222.719 211.466H227.084Z" fill="black"/>
<path d="M189.302 229.808C187.564 229.808 186 229.428 184.61 228.668C183.22 227.886 182.123 226.789 181.32 225.378C180.538 223.966 180.147 222.337 180.147 220.491C180.147 218.644 180.549 217.015 181.352 215.604C182.178 214.192 183.296 213.106 184.708 212.346C186.12 211.564 187.694 211.173 189.432 211.173C191.17 211.173 192.744 211.564 194.156 212.346C195.568 213.106 196.676 214.192 197.479 215.604C198.305 217.015 198.717 218.644 198.717 220.491C198.717 222.337 198.294 223.966 197.447 225.378C196.621 226.789 195.492 227.886 194.058 228.668C192.647 229.428 191.061 229.808 189.302 229.808ZM189.302 225.834C190.127 225.834 190.898 225.638 191.615 225.247C192.353 224.835 192.94 224.226 193.374 223.423C193.809 222.619 194.026 221.642 194.026 220.491C194.026 218.775 193.57 217.461 192.657 216.549C191.767 215.615 190.67 215.148 189.367 215.148C188.064 215.148 186.967 215.615 186.076 216.549C185.208 217.461 184.773 218.775 184.773 220.491C184.773 222.207 185.197 223.531 186.044 224.465C186.913 225.378 187.999 225.834 189.302 225.834Z" fill="black"/>
<path d="M172.676 214.268C173.263 213.312 174.023 212.563 174.957 212.02C175.913 211.477 176.999 211.205 178.215 211.205V215.995H177.01C175.576 215.995 174.49 216.331 173.752 217.005C173.035 217.678 172.676 218.851 172.676 220.523V229.515H168.115V211.466H172.676V214.268Z" fill="black"/>
<path d="M158.941 213.617C158.42 212.661 157.703 211.933 156.791 211.434C155.879 210.934 154.815 210.684 153.598 210.684C152.252 210.684 151.057 210.989 150.015 211.597C148.972 212.205 148.158 213.074 147.571 214.203C146.985 215.333 146.691 216.636 146.691 218.113C146.691 219.633 146.985 220.958 147.571 222.087C148.179 223.217 149.016 224.086 150.08 224.694C151.144 225.302 152.382 225.606 153.794 225.606C155.531 225.606 156.954 225.15 158.062 224.238C159.17 223.304 159.897 222.011 160.245 220.361H152.426V216.875H164.741V220.849C164.437 222.435 163.785 223.901 162.786 225.248C161.787 226.594 160.494 227.68 158.909 228.506C157.345 229.309 155.586 229.711 153.631 229.711C151.437 229.711 149.45 229.222 147.669 228.245C145.91 227.246 144.52 225.867 143.499 224.107C142.5 222.348 142 220.35 142 218.113C142 215.876 142.5 213.877 143.499 212.118C144.52 210.337 145.91 208.958 147.669 207.98C149.45 206.981 151.426 206.482 153.598 206.482C156.161 206.482 158.388 207.112 160.277 208.371C162.167 209.609 163.47 211.358 164.187 213.617H158.941Z" fill="black"/>
<path d="M234.666 180.363C234.666 181.579 234.373 182.72 233.786 183.784C233.222 184.848 232.32 185.706 231.082 186.358C229.866 187.009 228.324 187.335 226.456 187.335H222.644V196.066H218.083V173.326H226.456C228.215 173.326 229.714 173.63 230.952 174.238C232.19 174.846 233.113 175.682 233.721 176.747C234.351 177.811 234.666 179.016 234.666 180.363ZM226.26 183.653C227.52 183.653 228.454 183.371 229.062 182.806C229.67 182.22 229.974 181.405 229.974 180.363C229.974 178.147 228.736 177.04 226.26 177.04H222.644V183.653H226.26Z" fill="black"/>
<path d="M206.081 196.295C204.495 196.295 203.062 196.023 201.78 195.48C200.521 194.937 199.522 194.155 198.783 193.134C198.045 192.113 197.665 190.908 197.643 189.518H202.53C202.595 190.452 202.921 191.19 203.507 191.733C204.115 192.276 204.941 192.548 205.983 192.548C207.048 192.548 207.884 192.298 208.492 191.799C209.1 191.277 209.404 190.604 209.404 189.779C209.404 189.105 209.198 188.551 208.785 188.117C208.372 187.683 207.851 187.346 207.221 187.107C206.613 186.846 205.766 186.564 204.68 186.26C203.203 185.826 201.998 185.402 201.064 184.989C200.151 184.555 199.359 183.914 198.685 183.067C198.034 182.198 197.708 181.047 197.708 179.614C197.708 178.267 198.045 177.094 198.718 176.095C199.391 175.096 200.336 174.336 201.552 173.814C202.769 173.271 204.159 173 205.723 173C208.068 173 209.969 173.576 211.424 174.727C212.901 175.856 213.716 177.442 213.868 179.483H208.85C208.807 178.701 208.47 178.061 207.84 177.561C207.232 177.04 206.418 176.779 205.397 176.779C204.506 176.779 203.79 177.007 203.247 177.463C202.725 177.92 202.465 178.582 202.465 179.451C202.465 180.059 202.66 180.569 203.051 180.982C203.464 181.373 203.963 181.699 204.55 181.959C205.158 182.198 206.005 182.481 207.091 182.807C208.568 183.241 209.773 183.675 210.707 184.11C211.641 184.544 212.445 185.196 213.118 186.064C213.792 186.933 214.128 188.074 214.128 189.485C214.128 190.702 213.813 191.831 213.183 192.874C212.554 193.916 211.63 194.752 210.414 195.382C209.198 195.99 207.753 196.295 206.081 196.295Z" fill="black"/>
<path d="M193.72 173.326V196.066H189.159V181.275L183.066 196.066H179.613L173.488 181.275V196.066H168.927V173.326H174.107L181.339 190.235L188.572 173.326H193.72Z" fill="black"/>
</svg>
